<svg width="90" height="37" viewBox="0 0 90 37" fill="none" xmlns="http://www.w3.org/2000/svg">
<path fill-rule="evenodd" clip-rule="evenodd" d="M0.289307 1.27683C0.289307 0.499881 0.678579 0.0632629 1.37076 0.0632629H5.69632C6.38799 0.0632629 6.77752 0.499881 6.77752 1.27683V35.5103C6.77752 36.2875 6.38799 36.7241 5.69607 36.7241H1.37076C0.678579 36.7241 0.289307 36.2875 0.289307 35.5103V1.27683ZM36.2275 23.9071C36.2275 31.1411 41.9235 36.7241 49.0193 36.7241C56.1148 36.7241 61.8106 31.1411 61.8106 23.9071C61.8106 16.6733 56.1148 11.09 49.0193 11.09C41.9235 11.09 36.2275 16.6733 36.2275 23.9071ZM42.9229 23.9071C42.9229 20.122 45.5736 17.6159 49.0193 17.6159C52.4645 17.6159 55.1149 20.122 55.1149 23.9071C55.1149 27.6925 52.4645 30.1983 49.0193 30.1983C45.5736 30.1983 42.9229 27.6925 42.9229 23.9071ZM63.9953 23.9048C63.9953 31.1334 69.687 36.7124 76.7774 36.7124C79.7391 36.7124 82.4542 35.7368 84.6151 34.0764L88.2874 36.343C88.8244 36.6745 89.5145 36.2875 89.5168 35.654L89.5573 24.0783L89.5553 24.078C89.5556 24.0527 89.5564 24.0275 89.5573 24.0024C89.5576 23.9929 89.5579 23.9835 89.5581 23.9741C89.5584 23.9664 89.5586 23.9587 89.5588 23.951L89.5592 23.9237L89.5593 23.9048C89.5593 16.6761 83.8679 11.0972 76.7774 11.0972C69.687 11.0972 63.9953 16.6761 63.9953 23.9048ZM82.2156 21.9481L82.2209 21.9428C83.0134 21.1455 83.0995 19.9395 82.4129 19.2489C81.7263 18.5584 80.5273 18.645 79.7346 19.442L79.73 19.4466C79.4618 19.7169 79.0579 19.7943 78.7081 19.6463C78.0727 19.3773 77.5872 19.2288 76.8514 19.2288C76.1159 19.2288 75.6304 19.3773 74.995 19.6463C74.6449 19.7943 74.2407 19.7169 73.973 19.4466L73.9682 19.442C73.1757 18.645 71.9768 18.5584 71.2902 19.2489C70.6035 19.9395 70.6894 21.1455 71.4821 21.9428L71.4872 21.9481C71.8471 22.3071 72.0495 22.7956 72.0495 23.3054V25.5417C72.0495 26.542 72.4076 27.5128 73.0732 28.2562C73.4325 28.6574 73.8507 29.0046 74.3139 29.283C74.3349 29.2957 74.3542 29.311 74.3707 29.3291C74.4717 29.4407 74.9162 29.8847 75.5605 29.8503C76.297 29.8111 76.7119 29.5782 76.7119 29.0143C76.7119 28.6899 76.3576 28.4312 76.0178 28.1829C75.7231 27.9678 75.4393 27.7605 75.4063 27.5251C75.4027 27.5009 75.422 27.4795 75.446 27.4795H75.4562C75.4688 27.4795 75.4805 27.4861 75.4883 27.496C75.5116 27.5256 75.5828 27.5847 75.7836 27.5847C76.1779 27.5847 76.3518 27.6213 76.4985 27.6522C76.6056 27.6747 76.6982 27.6942 76.8514 27.6942C77.0046 27.6942 77.0972 27.6747 77.2043 27.6522C77.351 27.6213 77.5249 27.5847 77.9192 27.5847C78.12 27.5847 78.1914 27.5256 78.2148 27.496C78.2223 27.4861 78.2343 27.4795 78.2469 27.4795H78.2568C78.2809 27.4795 78.3004 27.5009 78.2968 27.5251C78.2638 27.7605 77.9799 27.9678 77.6853 28.1829C77.3454 28.4312 76.9912 28.6899 76.9912 29.0143C76.9912 29.5782 77.4058 29.8111 78.1423 29.8503C78.7866 29.8847 79.2311 29.4407 79.3322 29.3291C79.3486 29.311 79.3679 29.2957 79.3889 29.283C79.8521 29.0046 80.2705 28.6574 80.6299 28.2562C81.2952 27.5131 81.6536 26.542 81.6536 25.5417V23.3046C81.6536 22.7951 81.856 22.3068 82.2156 21.9481ZM78.0623 30.9825C78.0768 31.0087 78.1094 31.0181 78.1353 31.0026C78.2546 30.9313 78.558 30.7152 78.6573 30.325C78.6727 30.2646 78.6139 30.2114 78.5557 30.2335C78.4194 30.286 78.1864 30.3535 77.918 30.3395C77.7016 30.3283 77.5209 30.266 77.35 30.207C77.1825 30.1492 77.0244 30.0947 76.8515 30.0947C76.6786 30.0947 76.5205 30.1492 76.353 30.207C76.1821 30.266 76.0014 30.3283 75.7852 30.3395C75.5165 30.3535 75.2835 30.286 75.147 30.2335C75.0892 30.2114 75.0302 30.2646 75.0457 30.325C75.1449 30.7152 75.4486 30.9313 75.5676 31.0026C75.5932 31.0181 75.6264 31.0087 75.6406 30.9825C75.673 30.9234 75.7072 30.8755 75.7343 30.8413C75.7573 30.812 75.8022 30.8159 75.8212 30.848C75.9323 31.0339 76.1127 31.2385 76.1985 31.3317C76.2213 31.3569 76.2611 31.3534 76.2806 31.3253C76.3274 31.2578 76.3973 31.1911 76.4424 31.1514C76.4655 31.131 76.5007 31.1345 76.5192 31.159C76.6146 31.2861 76.7408 31.4069 76.8069 31.467C76.8322 31.4901 76.8707 31.4901 76.896 31.467C76.9621 31.4069 77.0883 31.2861 77.1837 31.159C77.2022 31.1345 77.2374 31.131 77.2605 31.1514C77.3056 31.1911 77.3755 31.2578 77.4226 31.3253C77.4418 31.3534 77.4816 31.3569 77.5046 31.3317C77.5905 31.2385 77.7708 31.0339 77.8817 30.848C77.9007 30.8159 77.9456 30.812 77.9686 30.8413C77.9957 30.8755 78.0299 30.9234 78.0623 30.9825ZM22.0936 36.7516C14.0807 36.7516 8.96398 31.1683 8.96398 23.9346C8.96398 16.7006 14.274 11.1173 21.9006 11.1173C28.9481 11.1173 34.0646 16.6035 34.0646 23.9346C34.0646 24.5653 34.0167 25.1482 33.9681 25.7307C33.8716 26.5079 33.3889 26.8475 32.6648 26.8475H26.7758H17.2696C16.9027 26.8475 16.6613 27.2266 16.8069 27.5653C17.8192 29.9237 19.8953 30.8772 22.1904 30.8772C23.5418 30.8772 24.8933 30.3916 25.7625 29.6636C26.2447 29.2749 26.6312 29.0324 27.2585 29.0324L31.8923 28.9837C32.7613 28.9837 33.244 29.5666 32.858 30.343C30.9755 34.5673 27.0174 36.7516 22.0936 36.7516ZM21.8523 17.5743C19.4219 17.5743 17.662 18.631 16.7854 20.5904C16.6339 20.929 16.8778 21.3126 17.2471 21.3126H26.1533C26.5147 21.3126 26.7573 20.9435 26.6218 20.6067C25.7257 18.3819 23.789 17.5743 21.8523 17.5743Z" fill="white"/>
</svg>