<?xml version="1.0" encoding="UTF-8"?>
<svg width="353px" height="145px" viewBox="0 0 353 145" version="1.1" xmlns="http://www.w3.org/2000/svg" xmlns:xlink="http://www.w3.org/1999/xlink">
    <!-- Generator: Sketch 53.2 (72643) - https://sketchapp.com -->
    <title>Group 18</title>
    <desc>Created with Sketch.</desc>
    <defs>
        <linearGradient x1="-8.50007858%" y1="35.4489854%" x2="100%" y2="59.0810729%" id="linearGradient-1">
            <stop stop-color="#E8368F" offset="0%"/>
            <stop stop-color="#4F2CB6" offset="100%"/>
        </linearGradient>
    </defs>
    <g id="Desktop-Blue-Purple" stroke="none" stroke-width="1" fill="none" fill-rule="evenodd">
        <g id="Imprensa" transform="translate(-268.000000, -2556.000000)">
            <g id="How-easy-is-it?" transform="translate(0.000000, 1621.000000)">
                <g id="Group-18" transform="translate(268.000000, 935.000000)">
                    <path d="M251.536,93.593 C251.536,65.216 274.009,43.315 302.005,43.315 C330.001,43.315 352.473,65.216 352.473,93.593 C352.473,93.82 352.46,94.045 352.457,94.273 L352.465,94.274 L352.305,139.716 C352.296,142.203 349.571,143.722 347.451,142.421 L332.951,133.523 C324.419,140.041 313.699,143.871 302.005,143.871 C274.009,143.871 251.536,121.97 251.536,93.593 Z M34.251,93.71 C34.251,65.312 55.217,43.394 85.33,43.394 C113.156,43.394 133.358,64.931 133.358,93.71 C133.358,96.186 133.169,98.474 132.977,100.761 C132.596,103.812 130.69,105.145 127.831,105.145 L104.579,105.145 L67.045,105.145 C65.596,105.145 64.643,106.633 65.218,107.963 C69.215,117.221 77.412,120.964 86.474,120.964 C91.81,120.964 97.146,119.058 100.578,116.2 C102.482,114.674 104.008,113.722 106.485,113.722 L124.781,113.531 C128.212,113.531 130.118,115.819 128.594,118.867 C121.161,135.45 105.533,144.025 86.092,144.025 C54.454,144.025 34.251,122.107 34.251,93.71 Z M65.133,80.582 C64.535,81.911 65.498,83.417 66.956,83.417 L102.121,83.417 C103.548,83.417 104.506,81.968 103.971,80.646 C100.433,71.912 92.786,68.742 85.139,68.742 C75.543,68.742 68.594,72.89 65.133,80.582 Z M141.898,93.602 C141.898,65.205 164.388,43.287 192.405,43.287 C220.421,43.287 242.91,65.205 242.91,93.602 C242.91,122 220.421,143.917 192.405,143.917 C164.388,143.917 141.898,122 141.898,93.602 Z M168.334,93.602 C168.334,108.462 178.8,118.299 192.405,118.299 C206.008,118.299 216.473,108.462 216.473,93.602 C216.473,78.743 206.008,68.905 192.405,68.905 C178.8,68.905 168.334,78.743 168.334,93.602 Z M4.27,1.84741111e-13 L21.349,1.84741111e-13 C24.08,1.84741111e-13 25.618,1.714 25.618,4.764 L25.618,139.152 C25.618,142.203 24.08,143.917 21.348,143.917 L4.27,143.917 C1.537,143.917 -7.12319093e-13,142.203 -7.12319093e-13,139.152 L-7.12319093e-13,4.764 C-7.12319093e-13,1.714 1.537,1.84741111e-13 4.27,1.84741111e-13 Z" id="Combined-Shape" fill="url(#linearGradient-1)"/>
                    <path d="M307.539981,123.913866 C307.428501,123.981152 307.287511,123.940339 307.225214,123.826726 C307.085317,123.570819 306.93777,123.363447 306.820825,123.215639 C306.721367,123.088789 306.527916,123.105334 306.445946,123.244318 C305.967237,124.049541 305.189062,124.935286 304.818555,125.339 C304.719097,125.448202 304.547505,125.432759 304.464441,125.311424 C304.261154,125.019117 303.959502,124.73012 303.764958,124.558045 C303.6655,124.469801 303.513581,124.485244 303.433797,124.591136 C303.021757,125.141555 302.477472,125.664399 302.192214,125.924717 C302.08292,126.025094 301.916793,126.025094 301.807498,125.924717 C301.52224,125.664399 300.977955,125.141555 300.565916,124.591136 C300.486131,124.485244 300.334212,124.469801 300.234754,124.558045 C300.040211,124.73012 299.738558,125.019117 299.536364,125.311424 C299.452208,125.432759 299.280616,125.448202 299.182251,125.339 C298.811743,124.935286 298.033568,124.049541 297.553767,123.244318 C297.471796,123.105334 297.278345,123.088789 297.178888,123.215639 C297.061943,123.363447 296.914395,123.570819 296.774499,123.826726 C296.713294,123.940339 296.570119,123.981152 296.459731,123.913866 C295.946049,123.605014 294.635611,122.669632 294.207177,120.979767 C294.140508,120.718345 294.395163,120.487809 294.644354,120.583774 C295.23345,120.811001 296.238957,121.103308 297.398569,121.04264 C299.245641,120.946675 300.492689,119.982614 301.999856,119.982614 C303.508117,119.982614 304.754071,120.946675 306.602236,121.04264 C307.760755,121.103308 308.766262,120.811001 309.354265,120.583774 C309.605642,120.487809 309.859205,120.718345 309.792535,120.979767 C309.364102,122.669632 308.054757,123.605014 307.539981,123.913866 Z M325.171108,84.6836324 L325.148157,84.7067964 C323.596178,86.2598836 322.722917,88.3744207 322.722917,90.5805106 L322.722917,100.267451 C322.722917,104.599108 321.176404,108.803916 318.305244,112.021498 C316.754359,113.758794 314.948819,115.262244 312.949827,116.467872 C312.859113,116.523024 312.776049,116.589207 312.705008,116.667523 C312.268924,117.150657 310.35081,119.073264 307.570365,118.924353 C304.392088,118.754484 302.602942,117.746301 302.602942,115.304159 C302.602942,112.682222 307.929943,111.050818 308.23706,108.855759 C308.252361,108.75097 308.168204,108.658314 308.064375,108.658314 L308.02175,108.658314 C307.967103,108.658314 307.915735,108.686993 307.882946,108.730012 C307.782396,108.857965 307.474186,109.113871 306.607483,109.113871 C303.664189,109.113871 303.566917,109.588181 301.999638,109.588181 C300.432358,109.588181 300.335086,109.113871 297.391793,109.113871 C296.525089,109.113871 296.217973,108.857965 296.117422,108.730012 C296.083541,108.686993 296.033265,108.658314 295.978618,108.658314 L295.934901,108.658314 C295.831071,108.658314 295.748007,108.75097 295.763309,108.855759 C296.070425,111.050818 301.397426,112.682222 301.397426,115.304159 C301.397426,117.746301 299.607187,118.754484 296.42891,118.924353 C293.648465,119.073264 291.730351,117.150657 291.294267,116.667523 C291.223226,116.589207 291.140162,116.523024 291.049448,116.467872 C289.050457,115.262244 287.246009,113.758794 285.695124,112.021498 C282.822871,108.802813 281.277451,104.599108 281.277451,100.267451 L281.277451,90.5838197 C281.277451,88.3766268 280.40419,86.2609867 278.851119,84.7067964 L278.82926,84.6836324 C275.40835,81.2311018 275.037843,76.0092872 278.00081,73.0189324 C280.963776,70.0285776 286.137765,70.4036129 289.557582,73.8550404 L289.578348,73.8748953 C290.733588,75.0452259 292.477924,75.3805516 293.98837,74.7396825 C296.730563,73.574867 298.825733,72.9317918 301.999638,72.9317918 C305.174635,72.9317918 307.269806,73.574867 310.011998,74.7396825 C311.521351,75.3805516 313.264594,75.0452259 314.42202,73.8748953 L314.441693,73.8550404 C317.862603,70.4036129 323.036592,70.0285776 325.999559,73.0189324 C328.962525,76.0092872 328.590925,81.2311018 325.171108,84.6836324 Z" id="Combined-Shape" fill="#FFFFFF"/>
                </g>
            </g>
        </g>
    </g>
</svg>